PathFileType	4	(X/Y/Z)	C:\Vicon\SynologyDrive\Alex P\Athlete_3\Athlete_3_22_07_06\static_01\marker_experimental.trc																																																																																																																																																																																																																									
DataRate	CameraRate	NumFrames	NumMarkers	Units	OrigDataRate	OrigDataStartFrame	OrigNumFrames																																																																																																																																																																																																																					
200	200	4	79	mm	200	0	693																																																																																																																																																																																																																					
Frame#	Time	GLAB			RFHD			LFHD			C7			T6			SPINMOL			SPINM2			SPINM3			T12			BELTOL			BELT2			BELT3			SACROL			SACR2			SACR3			LASI			RASI			LPSI			RPSI			LTHOL			LTH2			LTH3			LKNEL			LKNEM			LFIB			LSHAOL			LSHA2			LSHA3			LMALL			LMALM			LHEE			LTOE			LM5			RTHOL			RTH2			RTH3			RKNEL			RKNEM			RFIB			RSHAOL			RSHA2			RSHA3			RMALL			RMALM			RHEE			RTOE			RM5			STRN			XIPH			LACR			LUAOL			LUA2			LUA3			LCUBL			LCUBM			LLAOL			LLA2			LLA3			LWRR			LWRU			RACR			RUAOL			RUA2			RUA3			RCUBL			RCUBM			RLAOL			RLA2			RLA3			RWRR			RWRU			Bar:BL			Bar:BR		 	LKJCWK			RKJCWK			RAJCWK			LAJCWK			RHJCWK			LHJCWK
		X1	Y1	Z1	X2	Y2	Z2	X3	Y3	Z3	X4	Y4	Z4	X5	Y5	Z5	X6	Y6	Z6	X7	Y7	Z7	X8	Y8	Z8	X9	Y9	Z9	X10	Y10	Z10	X11	Y11	Z11	X12	Y12	Z12	X13	Y13	Z13	X14	Y14	Z14	X15	Y15	Z15	X16	Y16	Z16	X17	Y17	Z17	X18	Y18	Z18	X19	Y19	Z19	X20	Y20	Z20	X21	Y21	Z21	X22	Y22	Z22	X23	Y23	Z23	X24	Y24	Z24	X25	Y25	Z25	X26	Y26	Z26	X27	Y27	Z27	X28	Y28	Z28	X29	Y29	Z29	X30	Y30	Z30	X31	Y31	Z31	X32	Y32	Z32	X33	Y33	Z33	X34	Y34	Z34	X35	Y35	Z35	X36	Y36	Z36	X37	Y37	Z37	X38	Y38	Z38	X39	Y39	Z39	X40	Y40	Z40	X41	Y41	Z41	X42	Y42	Z42	X43	Y43	Z43	X44	Y44	Z44	X45	Y45	Z45	X46	Y46	Z46	X47	Y47	Z47	X48	Y48	Z48	X49	Y49	Z49	X50	Y50	Z50	X51	Y51	Z51	X52	Y52	Z52	X53	Y53	Z53	X54	Y54	Z54	X55	Y55	Z55	X56	Y56	Z56	X57	Y57	Z57	X58	Y58	Z58	X59	Y59	Z59	X60	Y60	Z60	X61	Y61	Z61	X62	Y62	Z62	X63	Y63	Z63	X64	Y64	Z64	X65	Y65	Z65	X66	Y66	Z66	X67	Y67	Z67	X68	Y68	Z68	X69	Y69	Z69	X70	Y70	Z70	X71	Y71	Z71	X72	Y72	Z72	X73	Y73	Z73	X74 	Y74 	Z74 	X75 	Y75 	Z75 	X76 	Y76 	Z76 	X77 	Y77 	Z77 	X78 	Y78 	Z78 	X79 	Y79 	Z79
																																																																																																																																																																																																																												
1	0	349.136	1572.9406	-1216.7275	289.7665	1588.5924	-1140.7123	286.1171	1588.2921	-1292.8314	123.5681	1449.5015	-1213.634	69.6668	1243.9832	-1228.5332	65.6178	1211.7931	-1232.8081	60.549	1150.9379	-1180.9286	69.7139	1150.0498	-1229.8043	83.2558	1109.1478	-1228.4772	60.1489	1086.573	-1227.8709	61.4011	1026.9943	-1174.7374	53.9891	1024.777	-1224.3723	65.088	974.8419	-1249.7681	71.6458	984.5251	-1199.9115	42.0516	926.0351	-1211.184	281.6359	943.0339	-1337.515	284.9165	942.4158	-1109.7567	76.5094	990.9722	-1261.4418	76.7139	989.6312	-1172.1916	196.8957	737.3086	-1445.1868	148.0628	676.4323	-1428.3154	196.8015	675.4108	-1440.9135	190.3101	498.2577	-1427.876	213.2115	467.0117	-1283.8175	150.65	442.1011	-1429.3086	143.2032	325.7386	-1450.7164	100.5114	259.3549	-1444.9084	149.816	263.8221	-1450.4585	125.8252	85.0585	-1434.371	169.0392	96.3391	-1350.7208	78.3228	38.6578	-1374.8798	289.6551	47.4278	-1391.2269	238.5633	32.1207	-1492.1396	170.3185	708.388	-1006.8315	202.5723	636.4633	-993.291	156.5712	647.5983	-1009.915	158.284	496.8934	-1014.1321	206.1228	461.9596	-1152.2014	114.6711	442.1459	-1015.3704	90.507	322.8101	-998.9295	130.1311	255.5775	-983.735	83.8582	261.4353	-1002.5536	89.8782	86.5796	-1016.7357	152.775	96.9656	-1084.2534	57.937	38.0626	-1077.6327	261.5897	43.2697	-1022.2831	202.3694	40.9927	-937.2833	273.6911	1368.2554	-1225.2502	311.785	1210.676	-1227.063	135.9583	1414.421	-1401.9247	124.3614	1349.8143	-1515.7159	115.5805	1299.4023	-1558.3176	149.5964	1335.1262	-1575.0894	161.6716	1298.321	-1683.4943	184.867	1212.1753	-1633.86	191.2672	1267.2484	-1769.3674	197.4683	1231.0117	-1823.8423	235.8961	1262.7324	-1817.1974	306.1425	1192.1262	-1862.6598	248.564	1213.8136	-1905.3351	150.9197	1403.594	-1042.5972	161.4674	1337.1545	-909.9356	211.5244	1328.725	-866.9988	166.4615	1317.635	-846.41	158.9455	1291.1834	-795.8231	214.955	1197.6395	-809.1497	216.5863	1273.7921	-673.229	267.313	1262.3975	-633.475	222.4771	1249.7587	-613.1567	305.275	1182.7098	-580.2714	239.0426	1214.9298	-543.8781	1515.5317	1284.9706	-2309.2493	1540.5569	1283.442	-83.7833	201.7608	482.6347	-1355.8467	182.2034	479.4265	-1083.1668	119.6829	81.306	-1049.6124	145.9654	80.1165	-1393.5368	225.6706	873.5595	-1140.5167	223.2951	874.0071	-1305.435
2	0.005	349.1376	1572.9774	-1216.7369	289.7861	1588.6115	-1140.7076	286.1183	1588.318	-1292.8218	123.5912	1449.506	-1213.618	69.695	1243.9854	-1228.5192	65.6351	1211.7993	-1232.8002	60.5774	1150.9387	-1180.9152	69.7363	1150.0408	-1229.7949	83.2772	1109.1534	-1228.4719	60.1757	1086.5768	-1227.866	61.4211	1027.0028	-1174.7266	54.0132	1024.7814	-1224.3673	65.0773	974.8748	-1249.766	71.7053	984.5276	-1199.9037	42.0638	926.037	-1211.1866	281.6567	943.0291	-1337.5162	284.9393	942.4142	-1109.7587	76.5182	990.9838	-1261.4402	76.7442	989.6367	-1172.1892	196.903	737.3109	-1445.1895	148.0759	676.4327	-1428.304	196.8191	675.41	-1440.9197	190.3219	498.2598	-1427.869	213.2254	467.0232	-1283.8166	150.6632	442.1017	-1429.3068	143.2063	325.7433	-1450.7174	100.5226	259.3529	-1444.9161	149.8184	263.8243	-1450.4644	125.827	85.0551	-1434.3743	169.0356	96.3402	-1350.7135	78.3232	38.6584	-1374.8844	289.6559	47.4337	-1391.2299	238.5594	32.1191	-1492.1401	170.3442	708.3853	-1006.8288	202.5855	636.4639	-993.2902	156.5955	647.5927	-1009.9217	158.3106	496.8958	-1014.1337	206.1415	461.9569	-1152.2035	114.692	442.1464	-1015.3666	90.5194	322.8204	-998.9282	130.0445	255.8539	-983.3889	83.8633	261.4586	-1002.5484	89.8832	86.5793	-1016.7408	152.7777	96.9648	-1084.2549	57.9467	38.0575	-1077.6296	261.5858	43.2633	-1022.2798	202.3721	40.9943	-937.2855	273.7325	1368.2626	-1225.2454	311.8264	1210.6779	-1227.0649	135.9882	1414.4291	-1401.9061	124.3741	1349.8279	-1515.6896	115.5755	1299.4218	-1558.3007	149.5992	1335.1371	-1575.0685	161.6715	1298.3381	-1683.4733	184.8617	1212.1919	-1633.8567	191.2681	1267.2673	-1769.3717	197.4576	1231.0378	-1823.8341	235.8875	1262.7611	-1817.1875	306.1327	1192.1609	-1862.6588	248.5614	1213.8447	-1905.3282	150.9584	1403.5935	-1042.5917	161.504	1337.1361	-909.8993	211.5662	1328.7457	-866.9891	166.5181	1317.6482	-846.3994	159.0125	1291.202	-795.8147	215.009	1197.6617	-809.1273	216.6205	1273.8506	-673.2474	267.3975	1262.4158	-633.4567	222.5362	1249.7955	-613.161	305.3408	1182.7365	-580.2581	239.1172	1214.9794	-543.8671	1515.4658	1284.9807	-2309.23	1540.5603	1283.4375	-83.7897	201.7737	482.6415	-1355.8428	182.226	479.4264	-1083.1686	119.6863	81.3055	-1049.6157	145.9641	80.1154	-1393.5348	225.6896	873.5606	-1140.5167	223.3127	874.0057	-1305.435
3	0.01	348.6876	1573.0804	-1216.9629	289.7845	1588.6223	-1140.7096	286.1011	1588.3333	-1292.8218	123.6198	1449.5016	-1213.606	69.7091	1243.9873	-1228.5186	65.6738	1211.8109	-1232.7841	60.594	1150.9458	-1180.9045	69.7564	1150.04	-1229.7849	83.2991	1109.1515	-1228.467	60.2011	1086.5758	-1227.8608	61.437	1027.0056	-1174.7174	54.0393	1024.7827	-1224.3615	65.1386	974.8525	-1249.7684	71.6969	984.5209	-1199.9009	42.0871	926.029	-1211.1769	281.6743	943.0245	-1337.5148	284.9584	942.4142	-1109.7544	76.5539	990.9775	-1261.4189	76.7641	989.6421	-1172.1807	196.9107	737.3078	-1445.1907	148.0808	676.4294	-1428.3002	196.8268	675.4095	-1440.9192	190.3258	498.2543	-1427.8644	213.2234	467.0057	-1283.8009	150.6735	442.1071	-1429.3044	143.2151	325.7405	-1450.7112	100.5263	259.3562	-1444.9244	149.8292	263.8253	-1450.4679	125.831	85.0611	-1434.3738	169.0346	96.335	-1350.7147	78.3226	38.664	-1374.8802	289.6585	47.4314	-1391.2266	238.5604	32.118	-1492.1401	170.3606	708.3839	-1006.8246	202.6024	636.4678	-993.2922	156.6142	647.5959	-1009.9058	158.3153	496.8864	-1014.1306	206.1724	461.9604	-1152.1915	114.7034	442.1472	-1015.3611	90.5342	322.8205	-998.9211	130.1443	255.5789	-983.7336	83.8832	261.4377	-1002.5443	89.8827	86.5833	-1016.7371	152.7786	96.9637	-1084.2579	57.9398	38.0589	-1077.6302	261.5879	43.2632	-1022.2856	202.3738	40.9936	-937.2814	273.7739	1368.2611	-1225.2428	311.8734	1210.6873	-1227.0673	136.0201	1414.436	-1401.8853	124.3983	1349.8538	-1515.6759	115.5913	1299.4432	-1558.2654	149.6225	1335.1591	-1575.0542	161.6733	1298.3542	-1683.4672	184.8635	1212.2115	-1633.8544	191.2501	1267.2941	-1769.3602	197.4493	1231.0646	-1823.8263	235.8802	1262.7913	-1817.1834	306.1232	1192.1919	-1862.6536	248.5524	1213.8799	-1905.3287	150.9978	1403.5897	-1042.5925	161.5844	1337.1841	-909.8944	211.6493	1328.7561	-866.9849	166.5881	1317.6599	-846.3905	159.0736	1291.2109	-795.8005	215.0643	1197.6687	-809.1044	216.6994	1273.9656	-673.1893	267.4742	1262.4508	-633.454	222.5981	1249.8356	-613.1517	305.4079	1182.7731	-580.2455	239.1943	1215.0259	-543.8502	1515.5347	1284.9626	-2309.2502	1540.5719	1283.4377	-83.7864	201.7746	482.63	-1355.8326	182.2438	479.4234	-1083.161	119.686	81.307	-1049.6156	145.9656	80.1159	-1393.5355	225.7073	873.5609	-1140.5121	223.3293	874.0029	-1305.43
4	0.015	348.7006	1573.1172	-1216.9746	289.802	1588.6362	-1140.7052	286.1004	1588.3605	-1292.8093	123.6708	1449.5013	-1213.5736	69.7436	1244.0016	-1228.5048	65.6949	1211.8181	-1232.7772	60.6252	1150.9462	-1180.8885	69.7733	1150.0457	-1229.7648	83.3214	1109.151	-1228.4585	60.2275	1086.583	-1227.8531	61.4633	1027.0081	-1174.7125	54.0606	1024.785	-1224.3533	65.1938	974.8702	-1249.7493	71.7255	984.5341	-1199.8784	42.105	926.0321	-1211.1511	281.6946	943.0214	-1337.5094	284.9839	942.4099	-1109.7489	76.5593	990.985	-1261.4216	76.782	989.6498	-1172.1752	196.927	737.3113	-1445.1957	148.1	676.4249	-1428.2919	196.8434	675.4103	-1440.9302	190.331	498.255	-1427.8613	213.1475	466.9873	-1284.1945	150.6746	442.108	-1429.3027	143.2202	325.7422	-1450.7087	100.5296	259.3582	-1444.9261	149.8368	263.8342	-1450.4744	125.8269	85.0638	-1434.3723	169.0317	96.3356	-1350.7145	78.3253	38.6604	-1374.8811	289.66	47.4245	-1391.2262	238.5584	32.1211	-1492.1477	170.3747	708.3815	-1006.8197	202.6204	636.4526	-993.2731	156.6301	647.5962	-1009.907	158.3444	496.8912	-1014.1238	206.1858	461.9528	-1152.1975	114.7264	442.1463	-1015.3541	90.5428	322.8256	-998.9169	130.1803	255.5805	-983.7646	83.8891	261.4638	-1002.5356	89.8844	86.5875	-1016.7405	152.7801	96.966	-1084.2565	57.9346	38.0595	-1077.6294	261.5893	43.2643	-1022.2858	202.3767	40.9932	-937.2826	273.8174	1368.2622	-1225.2371	311.9218	1210.6923	-1227.0752	135.9208	1414.5594	-1401.8998	124.4185	1349.8593	-1515.6554	115.5868	1299.4531	-1558.2539	149.6372	1335.1792	-1575.0402	161.6715	1298.3818	-1683.4595	184.8612	1212.2332	-1633.8539	191.2501	1267.3301	-1769.3453	197.4514	1231.0919	-1823.8171	235.8752	1262.8213	-1817.1757	306.1158	1192.2227	-1862.6581	248.5471	1213.913	-1905.3241	151.0419	1403.5857	-1042.5814	161.6172	1337.188	-909.873	211.695	1328.7705	-866.9799	166.6488	1317.6729	-846.3768	159.1399	1291.2328	-795.7866	215.1244	1197.6875	-809.0891	216.8065	1273.9967	-673.1794	267.5355	1262.4773	-633.459	222.6755	1249.8783	-613.1351	305.4698	1182.8055	-580.2336	239.2665	1215.0718	-543.8455	1515.5311	1284.9613	-2309.2515	1540.5698	1283.4329	-83.7909	201.7393	482.6212	-1356.0279	182.2651	479.422	-1083.1606	119.6871	81.3103	-1049.6166	145.9628	80.1169	-1393.5294	225.7293	873.5591	-1140.5056	223.3476	874.0019	-1305.424
